<?xml version="1.0" encoding="UTF-8"?>
<svg version="1.1" xmlns="http://www.w3.org/2000/svg" width="375" height="666">
<path d="M0 0 C1.4375 1.625 1.4375 1.625 1.4375 4.625 C2.0975 4.955 2.7575 5.285 3.4375 5.625 C4.0975 5.955 4.7575 6.285 5.4375 6.625 C5.7675 3.985 6.0975 1.345 6.4375 -1.375 C9.25006281 -1.40184312 12.06237241 -1.42176188 14.875 -1.4375 C15.67744141 -1.44587891 16.47988281 -1.45425781 17.30664062 -1.46289062 C19.35045221 -1.4715143 21.39433902 -1.4272815 23.4375 -1.375 C25.02596651 0.21346651 24.78869763 1.99062615 25 4.1875 C25.08378906 5.01378906 25.16757813 5.84007812 25.25390625 6.69140625 C25.39366443 8.92456357 25.42316781 11.16491435 25.40234375 13.40234375 C25.37656203 17.86363445 25.87923557 22.20414924 26.4375 26.625 C26.62948003 28.1452743 26.81701576 29.66611673 27 31.1875 C27.12568359 32.17943359 27.12568359 32.17943359 27.25390625 33.19140625 C27.5155783 36.65995277 27.4375 40.14659703 27.4375 43.625 C34.6975 43.625 41.9575 43.625 49.4375 43.625 C49.1075 42.965 48.7775 42.305 48.4375 41.625 C47.4475 42.615 47.4475 42.615 46.4375 43.625 C40.4975 43.625 34.5575 43.625 28.4375 43.625 C28.4375 28.775 28.4375 13.925 28.4375 -1.375 C45.4375 -1.375 45.4375 -1.375 50.4375 0.625 C52.05104989 3.99807363 51.56703963 8.05580502 51.5703125 11.7265625 C51.57126923 12.40423676 51.57222595 13.08191101 51.57321167 13.78012085 C51.57389015 15.20725599 51.57205906 16.63439428 51.56787109 18.06152344 C51.56250143 20.24941894 51.56783577 22.43711071 51.57421875 24.625 C51.57355824 26.01302129 51.57227763 27.40104245 51.5703125 28.7890625 C51.56918457 30.05186035 51.56805664 31.3146582 51.56689453 32.61572266 C51.4375 35.625 51.4375 35.625 50.4375 37.625 C51.0975 37.625 51.7575 37.625 52.4375 37.625 C52.43226318 36.94099121 52.42702637 36.25698242 52.42163086 35.55224609 C52.33950663 23.18787175 52.30451042 10.94626163 53.4375 -1.375 C60.0375 -1.375 66.6375 -1.375 73.4375 -1.375 C73.4375 1.925 73.4375 5.225 73.4375 8.625 C68.4875 8.13 68.4875 8.13 63.4375 7.625 C63.4375 9.935 63.4375 12.245 63.4375 14.625 C67.0675 14.295 70.6975 13.965 74.4375 13.625 C74.4375 8.675 74.4375 3.725 74.4375 -1.375 C86.4375 -1.375 98.4375 -1.375 110.4375 -1.375 C110.4375 11.825 110.4375 25.025 110.4375 38.625 C110.7675 25.425 111.0975 12.225 111.4375 -1.375 C115.0675 -1.375 118.6975 -1.375 122.4375 -1.375 C122.7675 7.865 123.0975 17.105 123.4375 26.625 C124.38324991 18.53299785 124.38324991 18.53299785 125.32202148 10.44018555 C125.44134033 9.4325415 125.56065918 8.42489746 125.68359375 7.38671875 C125.80404053 6.35506592 125.9244873 5.32341309 126.04858398 4.26049805 C126.4375 1.625 126.4375 1.625 127.4375 -1.375 C132.7175 -1.375 137.9975 -1.375 143.4375 -1.375 C145.56428332 13.65961921 147.63771374 28.40875587 147.4375 43.625 C143.1475 43.625 138.8575 43.625 134.4375 43.625 C134.4375 41.645 134.4375 39.665 134.4375 37.625 C134.1075 39.605 133.7775 41.585 133.4375 43.625 C122.5475 43.625 111.6575 43.625 100.4375 43.625 C100.4375 42.965 100.4375 42.305 100.4375 41.625 C99.7775 41.625 99.1175 41.625 98.4375 41.625 C98.1075 42.285 97.7775 42.945 97.4375 43.625 C115.2575 43.955 133.0775 44.285 151.4375 44.625 C151.4375 50.235 151.4375 55.845 151.4375 61.625 C85.1075 61.625 18.7775 61.625 -49.5625 61.625 C-49.5625 56.015 -49.5625 50.405 -49.5625 44.625 C-38.3425 44.295 -27.1225 43.965 -15.5625 43.625 C-16.8825 43.295 -18.2025 42.965 -19.5625 42.625 C-22.26182642 30.86691712 -24.25980437 11.51576549 -18.5625 0.625 C-12.52328991 -3.07247557 -6.32805882 -3.39554376 0 0 Z M90.4375 0.625 C90.7675 5.905 91.0975 11.185 91.4375 16.625 C93.76615655 14.75739112 93.76615655 14.75739112 93.5 11.75 C93.479375 10.71875 93.45875 9.6875 93.4375 8.625 C93.64375 7.8825 93.85 7.14 94.0625 6.375 C94.18625 5.7975 94.31 5.22 94.4375 4.625 C93.7775 3.965 93.1175 3.305 92.4375 2.625 C92.4375 3.945 92.4375 5.265 92.4375 6.625 C92.1075 4.645 91.7775 2.665 91.4375 0.625 C91.1075 0.625 90.7775 0.625 90.4375 0.625 Z M-9.5625 7.625 C-9.5625 15.875 -9.5625 24.125 -9.5625 32.625 C-9.2325 32.625 -8.9025 32.625 -8.5625 32.625 C-8.0675 28.17 -8.0675 28.17 -7.5625 23.625 C-6.49708984 23.55152344 -6.49708984 23.55152344 -5.41015625 23.4765625 C-4.03150391 23.36441406 -4.03150391 23.36441406 -2.625 23.25 C-1.70847656 23.18039062 -0.79195312 23.11078125 0.15234375 23.0390625 C1.28349609 22.83410156 1.28349609 22.83410156 2.4375 22.625 C3.55535113 20.50714887 3.55535113 20.50714887 4.4375 17.625 C1.70907939 16.26078969 -0.17203318 16.74692789 -3.1875 17.0625 C-4.19039062 17.16433594 -5.19328125 17.26617187 -6.2265625 17.37109375 C-6.99742187 17.45488281 -7.76828125 17.53867187 -8.5625 17.625 C-8.5625 14.325 -8.5625 11.025 -8.5625 7.625 C-8.8925 7.625 -9.2225 7.625 -9.5625 7.625 Z M39.4375 7.625 C39.4375 16.205 39.4375 24.785 39.4375 33.625 C40.0975 33.295 40.7575 32.965 41.4375 32.625 C41.4375 24.375 41.4375 16.125 41.4375 7.625 C40.7775 7.625 40.1175 7.625 39.4375 7.625 Z M4.4375 12.625 C5.4375 14.625 5.4375 14.625 5.4375 14.625 Z M72.4375 15.625 C72.4375 18.595 72.4375 21.565 72.4375 24.625 C73.0975 24.625 73.7575 24.625 74.4375 24.625 C74.4375 21.655 74.4375 18.685 74.4375 15.625 C73.7775 15.625 73.1175 15.625 72.4375 15.625 Z M14.4375 17.625 C14.4375 20.265 14.4375 22.905 14.4375 25.625 C15.0975 25.625 15.7575 25.625 16.4375 25.625 C16.1075 22.985 15.7775 20.345 15.4375 17.625 C15.1075 17.625 14.7775 17.625 14.4375 17.625 Z M3.4375 21.625 C3.1075 22.285 2.7775 22.945 2.4375 23.625 C3.4275 25.11 3.4275 25.11 4.4375 26.625 C4.4375 24.975 4.4375 23.325 4.4375 21.625 C4.1075 21.625 3.7775 21.625 3.4375 21.625 Z M83.4375 21.625 C83.4375 28.225 83.4375 34.825 83.4375 41.625 C84.4275 40.14 84.4275 40.14 85.4375 38.625 C86.0975 39.615 86.7575 40.605 87.4375 41.625 C86.66352467 34.91721378 85.57981412 28.27925699 84.4375 21.625 C84.1075 21.625 83.7775 21.625 83.4375 21.625 Z M134.4375 22.625 C134.4375 24.275 134.4375 25.925 134.4375 27.625 C134.7675 27.625 135.0975 27.625 135.4375 27.625 C135.4375 25.975 135.4375 24.325 135.4375 22.625 C135.1075 22.625 134.7775 22.625 134.4375 22.625 Z M63.4375 25.625 C63.4375 27.935 63.4375 30.245 63.4375 32.625 C67.0675 32.625 70.6975 32.625 74.4375 32.625 C74.4375 30.315 74.4375 28.005 74.4375 25.625 C70.8075 25.625 67.1775 25.625 63.4375 25.625 Z M99.4375 26.625 C98.7775 30.915 98.1175 35.205 97.4375 39.625 C98.4275 39.625 99.4175 39.625 100.4375 39.625 C100.4375 35.335 100.4375 31.045 100.4375 26.625 C100.1075 26.625 99.7775 26.625 99.4375 26.625 Z M122.4375 28.625 C122.4375 32.255 122.4375 35.885 122.4375 39.625 C122.7675 39.625 123.0975 39.625 123.4375 39.625 C123.4375 35.995 123.4375 32.365 123.4375 28.625 C123.1075 28.625 122.7775 28.625 122.4375 28.625 Z M73.4375 33.625 C73.4375 36.595 73.4375 39.565 73.4375 42.625 C73.7675 42.625 74.0975 42.625 74.4375 42.625 C74.4375 39.655 74.4375 36.685 74.4375 33.625 C74.1075 33.625 73.7775 33.625 73.4375 33.625 Z M2.4375 35.625 C1.798125 36.594375 1.15875 37.56375 0.5 38.5625 C-1.5625 41.625 -1.5625 41.625 -3.5625 42.625 C-5.43306791 42.8525015 -7.30935958 43.03462811 -9.1875 43.1875 C-10.19039062 43.27128906 -11.19328125 43.35507812 -12.2265625 43.44140625 C-12.99742188 43.50199219 -13.76828125 43.56257813 -14.5625 43.625 C-14.5625 43.955 -14.5625 44.285 -14.5625 44.625 C-4.0025 44.625 6.5575 44.625 17.4375 44.625 C17.1075 43.965 16.7775 43.305 16.4375 42.625 C16.7675 42.295 17.0975 41.965 17.4375 41.625 C17.47813832 39.95882885 17.480221 38.29111905 17.4375 36.625 C16.1175 36.625 14.7975 36.625 13.4375 36.625 C13.4375 38.935 13.4375 41.245 13.4375 43.625 C7.9925 43.13 7.9925 43.13 2.4375 42.625 C2.7675 40.315 3.0975 38.005 3.4375 35.625 C3.1075 35.625 2.7775 35.625 2.4375 35.625 Z M136.4375 38.625 C137.4375 40.625 137.4375 40.625 137.4375 40.625 Z M75.4375 43.625 C75.4375 43.955 75.4375 44.285 75.4375 44.625 C77.4175 44.625 79.3975 44.625 81.4375 44.625 C81.4375 44.295 81.4375 43.965 81.4375 43.625 C79.4575 43.625 77.4775 43.625 75.4375 43.625 Z " fill="#FDFDFD" transform="translate(140.5625,287.375)"/>
<path d="M0 0 C0.99 0.66 1.98 1.32 3 2 C3.33 1.67 3.66 1.34 4 1 C8.95 1 13.9 1 19 1 C19 14.2 19 27.4 19 41 C19.33 27.8 19.66 14.6 20 1 C23.63 1 27.26 1 31 1 C31.33 10.24 31.66 19.48 32 29 C32.94574991 20.90799785 32.94574991 20.90799785 33.88452148 12.81518555 C34.00384033 11.8075415 34.12315918 10.79989746 34.24609375 9.76171875 C34.36654053 8.73006592 34.4869873 7.69841309 34.61108398 6.63549805 C35 4 35 4 36 1 C41.28 1 46.56 1 52 1 C54.12678332 16.03461921 56.20021374 30.78375587 56 46 C51.71 46 47.42 46 43 46 C43 44.02 43 42.04 43 40 C42.67 41.98 42.34 43.96 42 46 C31.11 46 20.22 46 9 46 C9 45.34 9 44.68 9 44 C8.34 44 7.68 44 7 44 C6.67 44.66 6.34 45.32 6 46 C23.82 46.33 41.64 46.66 60 47 C60 52.61 60 58.22 60 64 C-6.33 64 -72.66 64 -141 64 C-141 63.67 -141 63.34 -141 63 C-75 63 -9 63 59 63 C59 58.05 59 53.1 59 48 C56.73326416 48.00523682 54.46652832 48.01047363 52.13110352 48.01586914 C44.65922543 48.03240568 37.18734656 48.04347148 29.71545506 48.05181217 C25.18325906 48.05704078 20.65108173 48.06413801 16.11889648 48.07543945 C11.7487717 48.08626914 7.37866492 48.09227701 3.00852776 48.09487724 C1.33749037 48.09673135 -0.33354597 48.10035168 -2.00457573 48.10573006 C-4.33697551 48.11294159 -6.66929993 48.1139909 -9.00170898 48.11352539 C-9.6994191 48.11712067 -10.39712921 48.12071594 -11.11598206 48.12442017 C-15.88594784 48.11405216 -15.88594784 48.11405216 -17 47 C-17.14310287 43.3308423 -17.04221662 39.67284559 -17 36 C-20.63 36 -24.26 36 -28 36 C-28 35.67 -28 35.34 -28 35 C-24.37 35 -20.74 35 -17 35 C-17 32.69 -17 30.38 -17 28 C-20.63 28 -24.26 28 -28 28 C-28 27.67 -28 27.34 -28 27 C-24.37 27 -20.74 27 -17 27 C-17.185625 25.494375 -17.37125 23.98875 -17.5625 22.4375 C-18.24106587 15.21831306 -17.63202015 8.20502976 -17 1 C-15.85660156 1.01160156 -14.71320313 1.02320313 -13.53515625 1.03515625 C-12.04427246 1.04453288 -10.55338691 1.05363321 -9.0625 1.0625 C-8.30775391 1.07087891 -7.55300781 1.07925781 -6.77539062 1.08789062 C-4.85005687 1.09652441 -2.92464419 1.05224333 -1 1 C-0.67 0.67 -0.34 0.34 0 0 Z M-1 3 C-0.67 8.28 -0.34 13.56 0 19 C2.32865655 17.13239112 2.32865655 17.13239112 2.0625 14.125 C2.041875 13.09375 2.02125 12.0625 2 11 C2.20625 10.2575 2.4125 9.515 2.625 8.75 C2.74875 8.1725 2.8725 7.595 3 7 C2.34 6.34 1.68 5.68 1 5 C1 6.32 1 7.64 1 9 C0.67 7.02 0.34 5.04 0 3 C-0.33 3 -0.66 3 -1 3 Z M-8 24 C-8 30.6 -8 37.2 -8 44 C-7.01 42.515 -7.01 42.515 -6 41 C-5.34 41.99 -4.68 42.98 -4 44 C-4.77397533 37.29221378 -5.85768588 30.65425699 -7 24 C-7.33 24 -7.66 24 -8 24 Z M43 25 C43 26.65 43 28.3 43 30 C43.33 30 43.66 30 44 30 C44 28.35 44 26.7 44 25 C43.67 25 43.34 25 43 25 Z M8 29 C7.34 33.29 6.68 37.58 6 42 C6.99 42 7.98 42 9 42 C9 37.71 9 33.42 9 29 C8.67 29 8.34 29 8 29 Z M31 31 C31 34.63 31 38.26 31 42 C31.33 42 31.66 42 32 42 C32 38.37 32 34.74 32 31 C31.67 31 31.34 31 31 31 Z M45 41 C46 43 46 43 46 43 Z M-16 46 C-16 46.33 -16 46.66 -16 47 C-14.02 47 -12.04 47 -10 47 C-10 46.67 -10 46.34 -10 46 C-11.98 46 -13.96 46 -16 46 Z " fill="#E7E7E7" transform="translate(232,285)"/>
<path d="M0 0 C6.27 0 12.54 0 19 0 C19.81059963 15.11782745 20.14989742 30.18215314 20.1328125 45.3203125 C20.13348918 47.48298147 20.13446221 49.64565037 20.13571167 51.80831909 C20.13717091 56.3007684 20.13509162 60.79319759 20.13037109 65.28564453 C20.12466798 70.98447836 20.12796796 76.68326512 20.13394356 82.38209724 C20.13759168 86.83503562 20.13639138 91.28796321 20.13381577 95.74090195 C20.13315856 97.84001547 20.1339316 99.93913004 20.13629532 102.03824234 C20.14549559 112.49588122 20.04581752 122.93088061 19.55419922 133.37841797 C19.51547762 134.235338 19.47675602 135.09225803 19.43686104 135.97514534 C19.12438568 141.87561432 19.12438568 141.87561432 18 143 C12.06 143 6.12 143 0 143 C0 95.81 0 48.62 0 0 Z " fill="#F2F2F2" transform="translate(296,269)"/>
<path d="M0 0 C6.27 0 12.54 0 19 0 C19.15354256 18.49718625 19.30179122 36.99440566 19.4429636 55.49169064 C19.50864201 64.0796898 19.57621344 72.66766638 19.64819336 81.25561523 C19.71090331 88.73812772 19.77011039 96.22065818 19.82505554 103.70323187 C19.85429051 107.66766423 19.88531714 111.6320648 19.92053413 115.5964489 C19.95358822 119.32357173 19.98197857 123.05070025 20.00670624 126.77788734 C20.01664569 128.14976752 20.02832662 129.5216363 20.04183006 130.89348602 C20.05993478 132.75857702 20.07131435 134.62372977 20.08229065 136.48887634 C20.09058679 137.53511138 20.09888292 138.58134642 20.10743046 139.65928555 C20 142 20 142 19 143 C17.66956375 143.0983721 16.33406656 143.13078592 15 143.1328125 C14.195625 143.13410156 13.39125 143.13539063 12.5625 143.13671875 C11.716875 143.13285156 10.87125 143.12898437 10 143.125 C8.7315625 143.13080078 8.7315625 143.13080078 7.4375 143.13671875 C6.633125 143.13542969 5.82875 143.13414062 5 143.1328125 C4.2575 143.13168457 3.515 143.13055664 2.75 143.12939453 C1 143 1 143 0 142 C-0.09646028 140.16505514 -0.12187344 138.32635413 -0.12025452 136.48887634 C-0.12162918 135.2926918 -0.12300385 134.09650726 -0.12442017 132.86407471 C-0.12088057 131.52648901 -0.11724575 130.18890356 -0.11352539 128.85131836 C-0.11324352 127.45217389 -0.11340125 126.05302927 -0.1139679 124.65388489 C-0.11425588 120.84413541 -0.10835898 117.03441714 -0.10139394 113.22467494 C-0.09516059 109.24748691 -0.09455662 105.27029824 -0.09336853 101.29310608 C-0.09025516 93.75661461 -0.08204169 86.22013757 -0.07201904 78.68365246 C-0.06085808 70.10580172 -0.0553475 61.5279503 -0.05032361 52.9500941 C-0.03985908 35.30005431 -0.0220591 17.65002884 0 0 Z " fill="#F1F1F1" transform="translate(68,269)"/>
<path d="M0 0 C6.27 0 12.54 0 19 0 C19.9582903 2.87487091 20.11257942 4.59635752 20.08229065 7.57475281 C20.07525116 8.5128479 20.06821167 9.45094299 20.06095886 10.41746521 C20.04801285 11.44461136 20.03506683 12.47175751 20.02172852 13.5300293 C20.01212097 14.61311371 20.00251343 15.69619812 19.99261475 16.81210327 C19.9595788 20.39954028 19.9192638 23.98685725 19.87890625 27.57421875 C19.85460964 30.05857416 19.83076585 32.54293403 19.80735779 35.02729797 C19.75090231 40.90275062 19.68987262 46.77814189 19.62663645 52.65352517 C19.5478596 59.99878931 19.47616747 67.34411842 19.40429688 74.68945312 C19.27522565 87.79303031 19.13964256 100.8965315 19 114 C12.73 114 6.46 114 0 114 C0 76.38 0 38.76 0 0 Z " fill="#FBFBFB" transform="translate(46,283)"/>
<path d="M0 0 C6.27 0 12.54 0 19 0 C19 37.62 19 75.24 19 114 C12.73 114 6.46 114 0 114 C0 76.38 0 38.76 0 0 Z " fill="#F1F1F1" transform="translate(318,283)"/>
<path d="M0 0 C2.31 0 4.62 0 7 0 C8.26686881 4.87643946 8.14760473 9.68808702 8.125 14.6875 C8.12886719 15.55439453 8.13273437 16.42128906 8.13671875 17.31445312 C8.13542969 18.14267578 8.13414063 18.97089844 8.1328125 19.82421875 C8.13168457 20.57791748 8.13055664 21.33161621 8.12939453 22.1081543 C8 24 8 24 7 26 C8.98 26 10.96 26 13 26 C12.99476318 25.2479126 12.98952637 24.4958252 12.98413086 23.72094727 C12.96342773 20.33480658 12.95036123 16.94867916 12.9375 13.5625 C12.92912109 12.37849609 12.92074219 11.19449219 12.91210938 9.97460938 C12.90888672 8.84990234 12.90566406 7.72519531 12.90234375 6.56640625 C12.89448853 5.00321655 12.89448853 5.00321655 12.88647461 3.40844727 C13 1 13 1 14 0 C20.52542373 -0.23728814 20.52542373 -0.23728814 23 1 C23.66 0.67 24.32 0.34 25 0 C32.12408759 -0.58394161 32.12408759 -0.58394161 36 2 C36.66 2.66 37.32 3.32 38 4 C38.495 3.34 38.99 2.68 39.5 2 C42.55875245 -0.44700196 44.27367735 -0.59984329 48.09375 -0.37890625 C50 0 50 0 52.5 1.5625 C54.50478781 4.82028019 54.28862859 7.24782833 54 11 C52.68 11.33 51.36 11.66 50 12 C50.99 12.99 51.98 13.98 53 15 C54.52026073 11.95947853 54.28207966 8.77475561 54.42578125 5.41015625 C55 3 55 3 56.7890625 1.20703125 C60.42337458 -0.77707199 62.89063132 -0.39136845 67 0 C69.17476401 1.54338091 69.81832637 2.63665273 71 5 C71.26911279 8.95269601 71.23159896 12.91417534 71.25 16.875 C71.270625 17.97714844 71.29125 19.07929688 71.3125 20.21484375 C71.32023437 21.80619141 71.32023437 21.80619141 71.328125 23.4296875 C71.3374707 24.40147949 71.34681641 25.37327148 71.35644531 26.37451172 C70.94086601 29.43556638 70.13624061 30.79753177 68 33 C65.58984375 33.4609375 65.58984375 33.4609375 62.9375 33.375 C62.05964844 33.36210937 61.18179688 33.34921875 60.27734375 33.3359375 C58 33 58 33 56 31 C53.21762345 31.40528901 53.21762345 31.40528901 51 33 C47.96590677 33.37541519 45.03057361 33.40796183 42 33 C39.4375 31 39.4375 31 38 29 C37.608125 29.65355469 37.21625 30.30710937 36.8125 30.98046875 C35 33 35 33 32.625 33.42578125 C31.75875 33.38839844 30.8925 33.35101563 30 33.3125 C28.700625 33.27576172 28.700625 33.27576172 27.375 33.23828125 C25 33 25 33 22 32 C21.67 32.33 21.34 32.66 21 33 C19.43827255 33.08685603 17.87270656 33.10702219 16.30859375 33.09765625 C15.03326782 33.09390991 15.03326782 33.09390991 13.73217773 33.09008789 C12.64493408 33.08098389 11.55769043 33.07187988 10.4375 33.0625 C6.993125 33.041875 3.54875 33.02125 0 33 C0 22.11 0 11.22 0 0 Z M62 8 C62 13.94 62 19.88 62 26 C62.33 26 62.66 26 63 26 C63 20.06 63 14.12 63 8 C62.67 8 62.34 8 62 8 Z M31 11 C31.78375 11.928125 32.5675 12.85625 33.375 13.8125 C35.07896836 15.83035727 36.5251703 17.78775545 38 20 C38.99 19.67 39.98 19.34 41 19 C41 18.01 41 17.02 41 16 C40.01 16 39.02 16 38 16 C37.855625 15.360625 37.71125 14.72125 37.5625 14.0625 C37.18992819 12.02454854 37.18992819 12.02454854 36 11 C34.33382885 10.95936168 32.66611905 10.957279 31 11 Z M45 21 C46 23 46 23 46 23 Z M29 22 C30 25 30 25 30 25 Z " fill="#D3D3D3" transform="translate(109,359)"/>
<path d="M0 0 C1.4375 1.625 1.4375 1.625 1.4375 4.625 C2.0975 4.955 2.7575 5.285 3.4375 5.625 C4.0975 5.955 4.7575 6.285 5.4375 6.625 C5.7675 3.985 6.0975 1.345 6.4375 -1.375 C9.25006281 -1.40184312 12.06237241 -1.42176188 14.875 -1.4375 C15.67744141 -1.44587891 16.47988281 -1.45425781 17.30664062 -1.46289062 C19.35045221 -1.4715143 21.39433902 -1.4272815 23.4375 -1.375 C25.02596651 0.21346651 24.78869763 1.99062615 25 4.1875 C25.08378906 5.01378906 25.16757813 5.84007812 25.25390625 6.69140625 C25.39366443 8.92456357 25.42316781 11.16491435 25.40234375 13.40234375 C25.37656203 17.86363445 25.87923557 22.20414924 26.4375 26.625 C26.62948003 28.1452743 26.81701576 29.66611673 27 31.1875 C27.08378906 31.84878906 27.16757813 32.51007813 27.25390625 33.19140625 C27.5155783 36.65995277 27.4375 40.14659703 27.4375 43.625 C42.6175 43.955 57.7975 44.285 73.4375 44.625 C73.4375 44.955 73.4375 45.285 73.4375 45.625 C51.6575 45.625 29.8775 45.625 7.4375 45.625 C7.4375 45.295 7.4375 44.965 7.4375 44.625 C10.7375 44.625 14.0375 44.625 17.4375 44.625 C16.4475 43.635 15.4575 42.645 14.4375 41.625 C15.4275 41.625 16.4175 41.625 17.4375 41.625 C17.4375 39.975 17.4375 38.325 17.4375 36.625 C16.1175 36.625 14.7975 36.625 13.4375 36.625 C13.4375 38.935 13.4375 41.245 13.4375 43.625 C9.8075 43.625 6.1775 43.625 2.4375 43.625 C1.4375 41.625 1.4375 41.625 1.4375 39.625 C0.839375 40.285 0.24125 40.945 -0.375 41.625 C-5.02791477 44.54447594 -9.2153411 43.92298409 -14.5625 43.625 C-15.5525 43.625 -16.5425 43.625 -17.5625 43.625 C-20.5625 41.625 -20.5625 41.625 -21.01074219 39.70825195 C-21.04329102 38.93441162 -21.07583984 38.16057129 -21.109375 37.36328125 C-21.15022217 36.49832031 -21.19106934 35.63335937 -21.2331543 34.7421875 C-21.25933838 33.81664062 -21.28552246 32.89109375 -21.3125 31.9375 C-21.34706299 30.99519531 -21.38162598 30.05289063 -21.41723633 29.08203125 C-22.07145685 7.3803387 -22.07145685 7.3803387 -18.5625 0.625 C-12.52328991 -3.07247557 -6.32805882 -3.39554376 0 0 Z M-9.5625 7.625 C-9.5625 15.875 -9.5625 24.125 -9.5625 32.625 C-9.2325 32.625 -8.9025 32.625 -8.5625 32.625 C-8.0675 28.17 -8.0675 28.17 -7.5625 23.625 C-6.49708984 23.55152344 -6.49708984 23.55152344 -5.41015625 23.4765625 C-4.03150391 23.36441406 -4.03150391 23.36441406 -2.625 23.25 C-1.70847656 23.18039062 -0.79195312 23.11078125 0.15234375 23.0390625 C1.28349609 22.83410156 1.28349609 22.83410156 2.4375 22.625 C3.55535113 20.50714887 3.55535113 20.50714887 4.4375 17.625 C1.70907939 16.26078969 -0.17203318 16.74692789 -3.1875 17.0625 C-4.19039062 17.16433594 -5.19328125 17.26617187 -6.2265625 17.37109375 C-6.99742187 17.45488281 -7.76828125 17.53867187 -8.5625 17.625 C-8.5625 14.325 -8.5625 11.025 -8.5625 7.625 C-8.8925 7.625 -9.2225 7.625 -9.5625 7.625 Z M4.4375 12.625 C5.4375 14.625 5.4375 14.625 5.4375 14.625 Z M14.4375 17.625 C14.4375 20.265 14.4375 22.905 14.4375 25.625 C15.0975 25.625 15.7575 25.625 16.4375 25.625 C16.1075 22.985 15.7775 20.345 15.4375 17.625 C15.1075 17.625 14.7775 17.625 14.4375 17.625 Z M3.4375 21.625 C3.1075 22.285 2.7775 22.945 2.4375 23.625 C3.4275 25.11 3.4275 25.11 4.4375 26.625 C4.4375 24.975 4.4375 23.325 4.4375 21.625 C4.1075 21.625 3.7775 21.625 3.4375 21.625 Z " fill="#E8E8E8" transform="translate(140.5625,287.375)"/>
<path d="M0 0 C17 0 17 0 22 2 C23.61354989 5.37307363 23.12953963 9.43080502 23.1328125 13.1015625 C23.13424759 14.11807388 23.13424759 14.11807388 23.13571167 15.15512085 C23.13639015 16.58225599 23.13455906 18.00939428 23.13037109 19.43652344 C23.12500143 21.62441894 23.13033577 23.81211071 23.13671875 26 C23.13605824 27.38802129 23.13477763 28.77604245 23.1328125 30.1640625 C23.13168457 31.42686035 23.13055664 32.6896582 23.12939453 33.99072266 C23 37 23 37 22 39 C22.66 39 23.32 39 24 39 C23.99214478 37.97398682 23.99214478 37.97398682 23.98413086 36.92724609 C23.90200663 24.56287175 23.86701042 12.32126163 25 0 C31.6 0 38.2 0 45 0 C45 3.3 45 6.6 45 10 C41.7 9.67 38.4 9.34 35 9 C35 11.31 35 13.62 35 16 C38.3 15.67 41.6 15.34 45 15 C44.67 18.63 44.34 22.26 44 26 C41.03 26 38.06 26 35 26 C35 28.97 35 31.94 35 35 C38.3 35 41.6 35 45 35 C45 38.3 45 41.6 45 45 C37.08 45 29.16 45 21 45 C20.67 44.34 20.34 43.68 20 43 C19.34 43.66 18.68 44.32 18 45 C12.06 45 6.12 45 0 45 C0 30.15 0 15.3 0 0 Z M11 9 C11 17.58 11 26.16 11 35 C11.66 34.67 12.32 34.34 13 34 C13 25.75 13 17.5 13 9 C12.34 9 11.68 9 11 9 Z " fill="#EFEFEF" transform="translate(169,286)"/>
<path d="M0 0 C6.6 0 13.2 0 20 0 C20.74233892 28.38018808 21.22120171 56.6305448 20 85 C13.4 85 6.8 85 0 85 C-0.33 84.01 -0.66 83.02 -1 82 C-0.34 82 0.32 82 1 82 C0.67 54.94 0.34 27.88 0 0 Z " fill="#F2F2F2" transform="translate(340,298)"/>
<path d="M0 0 C6.27 0 12.54 0 19 0 C19 28.05 19 56.1 19 85 C12.73 85 6.46 85 0 85 C0 56.95 0 28.9 0 0 Z " fill="#F2F2F2" transform="translate(23,298)"/>
<path d="M0 0 C3.26349689 0.84010811 4.92883068 2.95303054 6.97265625 5.5078125 C7.65328125 4.6828125 8.33390625 3.8578125 9.03515625 3.0078125 C11.97265625 0.5078125 11.97265625 0.5078125 15.47265625 -0.1171875 C20.06474067 0.70282758 21.22342163 1.73398959 23.97265625 5.5078125 C24.68977956 9.35488814 24.62527827 13.10577254 24.53515625 17.0078125 C24.54611328 18.04035156 24.55707031 19.07289063 24.56835938 20.13671875 C24.52467107 24.65117705 24.41774728 27.69611748 22.22265625 31.69921875 C19.67720356 33.74530312 18.63028587 34.11421947 15.41015625 33.9453125 C14.26353516 33.91244141 14.26353516 33.91244141 13.09375 33.87890625 C10.97265625 33.5078125 10.97265625 33.5078125 7.97265625 31.5078125 C7.64265625 32.1678125 7.31265625 32.8278125 6.97265625 33.5078125 C4.70344089 33.64270641 2.43194955 33.73975245 0.16015625 33.8203125 C-1.73669922 33.90732422 -1.73669922 33.90732422 -3.671875 33.99609375 C-7.02734375 33.5078125 -7.02734375 33.5078125 -8.94921875 31.70703125 C-10.59491368 26.82361041 -10.49998889 22.1262225 -10.46484375 17.0078125 C-10.48482422 15.97527344 -10.50480469 14.94273437 -10.52539062 13.87890625 C-10.52245924 9.33525866 -10.49506065 6.34272819 -8.24609375 2.328125 C-5.55455581 0.11992662 -3.46047998 -0.19404561 0 0 Z M-2.02734375 7.5078125 C-2.02734375 9.4878125 -2.02734375 11.4678125 -2.02734375 13.5078125 C-1.69734375 13.5078125 -1.36734375 13.5078125 -1.02734375 13.5078125 C-1.02734375 11.5278125 -1.02734375 9.5478125 -1.02734375 7.5078125 C-1.35734375 7.5078125 -1.68734375 7.5078125 -2.02734375 7.5078125 Z M14.97265625 7.5078125 C14.97265625 13.7778125 14.97265625 20.0478125 14.97265625 26.5078125 C15.30265625 26.5078125 15.63265625 26.5078125 15.97265625 26.5078125 C15.97265625 20.2378125 15.97265625 13.9678125 15.97265625 7.5078125 C15.64265625 7.5078125 15.31265625 7.5078125 14.97265625 7.5078125 Z M-2.02734375 20.5078125 C-2.02734375 22.4878125 -2.02734375 24.4678125 -2.02734375 26.5078125 C-1.69734375 26.5078125 -1.36734375 26.5078125 -1.02734375 26.5078125 C-1.02734375 24.5278125 -1.02734375 22.5478125 -1.02734375 20.5078125 C-1.35734375 20.5078125 -1.68734375 20.5078125 -2.02734375 20.5078125 Z " fill="#C9C9C9" transform="translate(217.02734375,358.4921875)"/>
<path d="M0 0 C1.4375 1.625 1.4375 1.625 1.4375 4.625 C2.0975 4.955 2.7575 5.285 3.4375 5.625 C3.46437279 7.43742052 3.48383715 9.24995233 3.5 11.0625 C3.51160156 12.07183594 3.52320313 13.08117187 3.53515625 14.12109375 C3.4375 16.625 3.4375 16.625 2.4375 17.625 C0.58462498 17.69726502 -1.27083878 17.7088122 -3.125 17.6875 C-4.13691406 17.67847656 -5.14882812 17.66945313 -6.19140625 17.66015625 C-7.36509766 17.64275391 -7.36509766 17.64275391 -8.5625 17.625 C-8.5625 19.605 -8.5625 21.585 -8.5625 23.625 C-8.2325 23.295 -7.9025 22.965 -7.5625 22.625 C-5.87641034 22.55294489 -4.18749341 22.54113932 -2.5 22.5625 C-1.58089844 22.57152344 -0.66179687 22.58054687 0.28515625 22.58984375 C0.99542969 22.60144531 1.70570313 22.61304688 2.4375 22.625 C4.22159802 25.68746747 4.66630021 27.84579273 4.5625 31.375 C4.54445312 32.17421875 4.52640625 32.9734375 4.5078125 33.796875 C4.48460937 34.40015625 4.46140625 35.0034375 4.4375 35.625 C3.7775 35.625 3.1175 35.625 2.4375 35.625 C2.19 36.388125 1.9425 37.15125 1.6875 37.9375 C0.26703981 40.99148942 -0.69206358 41.9254645 -3.5625 43.625 C-6.25390625 43.91796875 -6.25390625 43.91796875 -9.125 43.8125 C-10.55005859 43.77189453 -10.55005859 43.77189453 -12.00390625 43.73046875 C-12.84824219 43.69566406 -13.69257812 43.66085937 -14.5625 43.625 C-15.5525 43.625 -16.5425 43.625 -17.5625 43.625 C-20.5625 41.625 -20.5625 41.625 -21.01074219 39.70825195 C-21.04329102 38.93441162 -21.07583984 38.16057129 -21.109375 37.36328125 C-21.15022217 36.49832031 -21.19106934 35.63335937 -21.2331543 34.7421875 C-21.25933838 33.81664062 -21.28552246 32.89109375 -21.3125 31.9375 C-21.34706299 30.99519531 -21.38162598 30.05289063 -21.41723633 29.08203125 C-22.07145685 7.3803387 -22.07145685 7.3803387 -18.5625 0.625 C-12.52328991 -3.07247557 -6.32805882 -3.39554376 0 0 Z " fill="#DADBDB" transform="translate(140.5625,287.375)"/>
<path d="M0 0 C5.61 0 11.22 0 17 0 C18.33765082 2.67530165 18.41398099 5.06719832 18.71875 8.046875 C18.84636719 9.28566406 18.97398438 10.52445312 19.10546875 11.80078125 C19.30076172 13.75564453 19.30076172 13.75564453 19.5 15.75 C19.69529297 17.63525391 19.69529297 17.63525391 19.89453125 19.55859375 C20.75682818 28.03349191 21.42899352 36.50078816 22 45 C17.38 45 12.76 45 8 45 C8.33 44.01 8.66 43.02 9 42 C9.66 42.33 10.32 42.66 11 43 C11 41.35 11 39.7 11 38 C10.34 38 9.68 38 9 38 C8.34 40.31 7.68 42.62 7 45 C3.04 45 -0.92 45 -5 45 C-4.71125 43.35 -4.4225 41.7 -4.125 40 C-1.91993177 26.66011916 -0.67460943 13.4921885 0 0 Z M9 22 C8.67 24.31 8.34 26.62 8 29 C8.66 29 9.32 29 10 29 C10 26.69 10 24.38 10 22 C9.67 22 9.34 22 9 22 Z " fill="#E5E5E5" transform="translate(98,286)"/>
<path d="M0 0 C2 2 2 2 3 4 C3.33 3.01 3.66 2.02 4 1 C9.33333333 1 14.66666667 1 20 1 C20.32660161 5.68128981 19.70100523 9.56545235 18.5625 14.125 C16.93442205 20.73714677 16.32224798 27.21056845 16 34 C13.36 34 10.72 34 8 34 C7.93941406 33.32453125 7.87882812 32.6490625 7.81640625 31.953125 C7.69072266 30.61507813 7.69072266 30.61507813 7.5625 29.25 C7.48128906 28.36828125 7.40007812 27.4865625 7.31640625 26.578125 C7.06543123 24.09760258 7.06543123 24.09760258 6.52734375 22.109375 C5.77648657 19.10594626 5.41266883 16.06553988 5 13 C4.95101563 14.02480469 4.90203125 15.04960937 4.8515625 16.10546875 C4.77648929 17.4661706 4.70094345 18.82684644 4.625 20.1875 C4.57859375 21.19780273 4.57859375 21.19780273 4.53125 22.22851562 C4.29999456 26.17912932 3.84585295 29.47428807 2 33 C-0.36613456 34.18306728 -1.86780736 34.13354608 -4.5 34.125 C-5.2940625 34.12757813 -6.088125 34.13015625 -6.90625 34.1328125 C-9 34 -9 34 -11 33 C-11 32.34 -11 31.68 -11 31 C-11.66 31 -12.32 31 -13 31 C-13.02898097 26.89584811 -13.0467922 22.79172247 -13.0625 18.6875 C-13.07087891 17.52025391 -13.07925781 16.35300781 -13.08789062 15.15039062 C-13.09111328 14.03212891 -13.09433594 12.91386719 -13.09765625 11.76171875 C-13.10289307 10.73006592 -13.10812988 9.69841309 -13.11352539 8.63549805 C-13 6 -13 6 -12 3 C-8.89634272 0.93089514 -8.35194595 0.77712426 -4.875 0.9375 C-2.956875 0.9684375 -2.956875 0.9684375 -1 1 C-0.67 0.67 -0.34 0.34 0 0 Z M-5 8 C-5 14.27 -5 20.54 -5 27 C-4.67 27 -4.34 27 -4 27 C-4 20.73 -4 14.46 -4 8 C-4.33 8 -4.66 8 -5 8 Z " fill="#DEDEDE" transform="translate(272,358)"/>
<path d="M0 0 C6.6 0 13.2 0 20 0 C20 3.3 20 6.6 20 10 C16.7 9.67 13.4 9.34 10 9 C10 11.31 10 13.62 10 16 C13.3 15.67 16.6 15.34 20 15 C19.67 18.63 19.34 22.26 19 26 C16.03 26 13.06 26 10 26 C10 28.97 10 31.94 10 35 C13.3 35 16.6 35 20 35 C19.67 37.97 19.34 40.94 19 44 C13.06 44 7.12 44 1 44 C-2.77839516 29.83101815 -1.25722414 14.45807765 0 0 Z " fill="#F8F8F8" transform="translate(194,286)"/>
<path d="M0 0 C3.33333333 0 6.66666667 0 10 0 C11.010625 -0.020625 12.02125 -0.04125 13.0625 -0.0625 C16 0 16 0 17 1 C17.1002093 3.27947792 17.13081303 5.56207135 17.1328125 7.84375 C17.13424759 8.87018616 17.13424759 8.87018616 17.13571167 9.9173584 C17.1363933 11.36661877 17.13454023 12.81588218 17.13037109 14.26513672 C17.12502252 16.49062928 17.1303166 18.71592001 17.13671875 20.94140625 C17.13605797 22.34635461 17.1347768 23.75130285 17.1328125 25.15625 C17.13168457 26.44337891 17.13055664 27.73050781 17.12939453 29.05664062 C17 32 17 32 16 33 C13.30345146 33.07319621 10.63308542 33.09242537 7.9375 33.0625 C6.79958008 33.05573242 6.79958008 33.05573242 5.63867188 33.04882812 C3.75908129 33.0370068 1.87953101 33.01907078 0 33 C-1.49789402 30.00421196 -1.00082655 27.35592581 -0.87890625 24.0234375 C-0.85529526 23.33819 -0.83168427 22.6529425 -0.80735779 21.94692993 C-0.73072143 19.75607584 -0.64669754 17.56557528 -0.5625 15.375 C-0.50927924 13.89064236 -0.45653884 12.40626741 -0.40429688 10.921875 C-0.2751067 7.28103263 -0.13928926 3.64047156 0 0 Z " fill="#E2E2E2" transform="translate(181,359)"/>
<path d="M0 0 C1.91541138 -0.10841951 3.83259773 -0.18578079 5.75 -0.25 C6.81734375 -0.29640625 7.8846875 -0.3428125 8.984375 -0.390625 C12 0 12 0 14.35961914 1.65820312 C16.39239273 4.56017727 16.50261512 6.19607765 16.49609375 9.71875 C16.49673828 10.81574219 16.49738281 11.91273438 16.49804688 13.04296875 C16.47806641 14.18378906 16.45808594 15.32460938 16.4375 16.5 C16.44458984 17.64082031 16.45167969 18.78164063 16.45898438 19.95703125 C16.38518728 29.61877432 16.38518728 29.61877432 13 33 C9.86328125 33.390625 9.86328125 33.390625 6.3125 33.25 C4.54326172 33.19585937 4.54326172 33.19585937 2.73828125 33.140625 C1.83464844 33.09421875 0.93101562 33.0478125 0 33 C-1.49789402 30.00421196 -1.00082655 27.35592581 -0.87890625 24.0234375 C-0.85529526 23.33819 -0.83168427 22.6529425 -0.80735779 21.94692993 C-0.73072143 19.75607584 -0.64669754 17.56557528 -0.5625 15.375 C-0.50927924 13.89064236 -0.45653884 12.40626741 -0.40429688 10.921875 C-0.2751067 7.28103263 -0.13928926 3.64047156 0 0 Z " fill="#DADADA" transform="translate(242,359)"/>
<path d="M0 0 C1.81242052 -0.02687279 3.62495233 -0.04633715 5.4375 -0.0625 C6.44683594 -0.07410156 7.45617187 -0.08570313 8.49609375 -0.09765625 C11 0 11 0 12 1 C12.22728683 2.42796642 12.39464743 3.86558893 12.53515625 5.3046875 C12.66591553 6.63850464 12.66591553 6.63850464 12.79931641 7.99926758 C12.88616699 8.94825928 12.97301758 9.89725098 13.0625 10.875 C13.15192871 11.82850342 13.24135742 12.78200684 13.33349609 13.7644043 C13.90833043 20.18776739 14.27194659 26.5488225 14 33 C10.66666667 33 7.33333333 33 4 33 C2.2365625 33.0309375 2.2365625 33.0309375 0.4375 33.0625 C-3 33 -3 33 -5 32 C-4.855625 31.443125 -4.71125 30.88625 -4.5625 30.3125 C-3.09516965 24.28014188 -2.70388312 18.51088228 -2.48242188 12.32617188 C-2.27321139 7.88538329 -1.64035311 4.19053771 0 0 Z M5 18 C6 21 6 21 6 21 Z " fill="#E0E0E0" transform="translate(94,359)"/>
<path d="M0 0 C2.17476401 1.54338091 2.81832637 2.63665273 4 5 C4.26911279 8.95269601 4.23159896 12.91417534 4.25 16.875 C4.270625 17.97714844 4.29125 19.07929688 4.3125 20.21484375 C4.31765625 21.27574219 4.3228125 22.33664062 4.328125 23.4296875 C4.34214355 24.88737549 4.34214355 24.88737549 4.35644531 26.37451172 C3.94075982 29.43634854 3.14331552 30.8019411 1 33 C-1.48046875 33.390625 -1.48046875 33.390625 -4.1875 33.25 C-5.08855469 33.21390625 -5.98960937 33.1778125 -6.91796875 33.140625 C-7.60503906 33.09421875 -8.29210937 33.0478125 -9 33 C-9.33 31.68 -9.66 30.36 -10 29 C-10.66 29 -11.32 29 -12 29 C-12.11589162 24.72939382 -12.18714802 20.45919016 -12.25 16.1875 C-12.28351563 14.97255859 -12.31703125 13.75761719 -12.3515625 12.50585938 C-12.36445313 11.34248047 -12.37734375 10.17910156 -12.390625 8.98046875 C-12.41157227 7.90692139 -12.43251953 6.83337402 -12.45410156 5.72729492 C-12 3 -12 3 -10.1027832 1.15112305 C-6.54240597 -0.79792823 -4.02287376 -0.38313083 0 0 Z M-5 8 C-5 13.94 -5 19.88 -5 26 C-4.67 26 -4.34 26 -4 26 C-4 20.06 -4 14.12 -4 8 C-4.33 8 -4.66 8 -5 8 Z " fill="#E3E3E3" transform="translate(176,359)"/>
<path d="M0 0 C2.5 1.5625 2.5 1.5625 4 4 C4.25 7.75 4.25 7.75 4 11 C2.68 11.33 1.36 11.66 0 12 C0.99 12.99 1.98 13.98 3 15 C3.33 14.34 3.66 13.68 4 13 C4 18.28 4 23.56 4 29 C4.99 29 5.98 29 7 29 C6.67 29.66 6.34 30.32 6 31 C4.67696283 31.3721042 3.34262065 31.70630173 2 32 C1.505 32.495 1.505 32.495 1 33 C-3.18288891 33.51755826 -6.79749624 33.69143966 -10.5 31.5625 C-12.66805571 27.85873817 -12.81914662 24.23196903 -13 20 C-11.68 19.67 -10.36 19.34 -9 19 C-9 18.01 -9 17.02 -9 16 C-9.99 16 -10.98 16 -12 16 C-13.19431563 9.81127356 -13.05928533 6.55203634 -10 1 C-6.79419594 -0.60290203 -3.47817686 -0.48117071 0 0 Z M-5 21 C-4 23 -4 23 -4 23 Z " fill="#CECFCE" transform="translate(159,359)"/>
<path d="M0 0 C2.91507818 0.51969632 4.13203607 0.90029959 5.90625 3.33984375 C6.22849406 6.36893794 6.13518734 9.306424 5.90625 12.33984375 C3.59625 12.33984375 1.28625 12.33984375 -1.09375 12.33984375 C-0.76375 12.66984375 -0.43375 12.99984375 -0.09375 13.33984375 C1.88625 13.33984375 3.86625 13.33984375 5.90625 13.33984375 C5.90625 19.60984375 5.90625 25.87984375 5.90625 32.33984375 C4.58625 32.00984375 3.26625 31.67984375 1.90625 31.33984375 C1.57625 31.99984375 1.24625 32.65984375 0.90625 33.33984375 C-5.05078125 33.828125 -5.05078125 33.828125 -7.09375 33.33984375 C-11.40284598 28.86575986 -10.57110945 22.64482894 -10.53125 16.83984375 C-10.55123047 15.80730469 -10.57121094 14.77476562 -10.59179688 13.7109375 C-10.58886533 9.16704653 -10.55734166 6.1712521 -8.31640625 2.15234375 C-5.29993973 -0.30748132 -3.74033832 -0.28610797 0 0 Z M-2.09375 20.33984375 C-2.09375 22.31984375 -2.09375 24.29984375 -2.09375 26.33984375 C-1.76375 26.33984375 -1.43375 26.33984375 -1.09375 26.33984375 C-1.09375 24.35984375 -1.09375 22.37984375 -1.09375 20.33984375 C-1.42375 20.33984375 -1.75375 20.33984375 -2.09375 20.33984375 Z " fill="#E1E1E1" transform="translate(217.09375,358.66015625)"/>
<path d="M0 0 C3.3 0 6.6 0 10 0 C10.02495763 4.65901308 10.04298042 9.31798614 10.05493164 13.97705078 C10.05992073 15.55778686 10.06671438 17.13851841 10.07543945 18.71923828 C10.1211381 27.21918732 10.07516124 35.55109515 9 44 C6.03 44 3.06 44 0 44 C0 29.48 0 14.96 0 0 Z " fill="#FBFCFC" transform="translate(253,286)"/>
<path d="M0 0 C5.33333333 0 10.66666667 0 16 0 C16.32660161 4.68128981 15.70100523 8.56545235 14.5625 13.125 C12.93442205 19.73714677 12.32224798 26.21056845 12 33 C9.36 33 6.72 33 4 33 C3.93941406 32.32453125 3.87882812 31.6490625 3.81640625 30.953125 C3.73261719 30.06109375 3.64882813 29.1690625 3.5625 28.25 C3.48128906 27.36828125 3.40007812 26.4865625 3.31640625 25.578125 C3.06543123 23.09760258 3.06543123 23.09760258 2.52734375 21.109375 C1.78061453 18.12245814 1.43541421 15.0478995 1 12 C0.67 16.95 0.34 21.9 0 27 C-0.33 27 -0.66 27 -1 27 C-1.02913821 23.4375173 -1.04684529 19.87506546 -1.0625 16.3125 C-1.07087891 15.30509766 -1.07925781 14.29769531 -1.08789062 13.25976562 C-1.09111328 12.28330078 -1.09433594 11.30683594 -1.09765625 10.30078125 C-1.10289307 9.40528564 -1.10812988 8.50979004 -1.11352539 7.5871582 C-0.99840198 4.96358241 -0.58234285 2.55706947 0 0 Z " fill="#CBCCCC" transform="translate(276,359)"/>
<path d="M0 0 C2.31 0 4.62 0 7 0 C7.0289337 3.79165074 7.04677601 7.58327327 7.0625 11.375 C7.07087891 12.45523437 7.07925781 13.53546875 7.08789062 14.6484375 C7.09111328 15.6796875 7.09433594 16.7109375 7.09765625 17.7734375 C7.10289307 18.72653809 7.10812988 19.67963867 7.11352539 20.66162109 C7 23 7 23 6 25 C7.98 25 9.96 25 12 25 C12 26.98 12 28.96 12 31 C8.04 31 4.08 31 0 31 C0 20.77 0 10.54 0 0 Z " fill="#EBEBEB" transform="translate(110,360)"/>
<path d="M0 0 C4.29 0 8.58 0 13 0 C13 5.61 13 11.22 13 17 C8.71 17 4.42 17 0 17 C0 11.39 0 5.78 0 0 Z " fill="#E7E7E7" transform="translate(7,332)"/>
<path d="M0 0 C4.29 0 8.58 0 13 0 C13 5.61 13 11.22 13 17 C6.565 17.495 6.565 17.495 0 18 C0 12.06 0 6.12 0 0 Z " fill="#E7E7E7" transform="translate(362,332)"/>
<path d="M0 0 C0.33 0 0.66 0 1 0 C1 14.52 1 29.04 1 44 C3.97 44 6.94 44 10 44 C10 40.7 10 37.4 10 34 C10.33 34 10.66 34 11 34 C11.495 38.95 11.495 38.95 12 44 C14.97 44 17.94 44 21 44 C21 42.02 21 40.04 21 38 C21.33 38 21.66 38 22 38 C22 40.31 22 42.62 22 45 C11.11 45 0.22 45 -11 45 C-11 44.34 -11 43.68 -11 43 C-11.66 43 -12.32 43 -13 43 C-13.33 43.66 -13.66 44.32 -14 45 C-16.97 45 -19.94 45 -23 45 C-23 44.67 -23 44.34 -23 44 C-20.36 44 -17.72 44 -15 44 C-14.67 40.7 -14.34 37.4 -14 34 C-13.67 34 -13.34 34 -13 34 C-13 35.98 -13 37.96 -13 40 C-12.67 40 -12.34 40 -12 40 C-12 34.06 -12 28.12 -12 22 C-11.34 22.33 -10.68 22.66 -10 23 C-10 29.93 -10 36.86 -10 44 C-6.7 44 -3.4 44 0 44 C0 29.48 0 14.96 0 0 Z " fill="#737575" transform="translate(252,286)"/>
<path d="M0 0 C0.33 0 0.66 0 1 0 C1 2.97 1 5.94 1 9 C-6.92 9 -14.84 9 -23 9 C-23.66666667 7.66666667 -24.33333333 6.33333333 -25 5 C-24.34 5 -23.68 5 -23 5 C-23 4.34 -23 3.68 -23 3 C-22.01 3 -21.02 3 -20 3 C-19.67 2.34 -19.34 1.68 -19 1 C-18 2 -18 2 -18 8 C-12.06 8 -6.12 8 0 8 C0 5.36 0 2.72 0 0 Z " fill="#A8A9AA" transform="translate(213,322)"/>
<path d="M0 0 C0.33 0 0.66 0 1 0 C1 3.63 1 7.26 1 11 C-3.29 11 -7.58 11 -12 11 C-12 9.02 -12 7.04 -12 5 C-12.33 4.34 -12.66 3.68 -13 3 C-11.35 3 -9.7 3 -8 3 C-8 5.31 -8 7.62 -8 10 C-5.36 10 -2.72 10 0 10 C0 6.7 0 3.4 0 0 Z M-10 6 C-9 8 -9 8 -9 8 Z " fill="#838484" transform="translate(287,320)"/>
<path d="M0 0 C0.33 0 0.66 0 1 0 C1.11381955 6.76594019 0.88021369 13.28837062 0 20 C-0.33 20 -0.66 20 -1 20 C-1.16873478 18.56274129 -1.33490737 17.12518162 -1.5 15.6875 C-1.5928125 14.88699219 -1.685625 14.08648437 -1.78125 13.26171875 C-2 11 -2 11 -2 8 C-1.67 8 -1.34 8 -1 8 C-0.67 5.36 -0.34 2.72 0 0 Z " fill="#5A5B5A" transform="translate(265,306)"/>
<path d="M0 0 C1.485 0.99 1.485 0.99 3 2 C3 2.66 3 3.32 3 4 C3.66 4.33 4.32 4.66 5 5 C4.34 6.32 3.68 7.64 3 9 C2.67 9 2.34 9 2 9 C1.01 9.495 1.01 9.495 0 10 C0 6.7 0 3.4 0 0 Z " fill="#E0E0E0" transform="translate(232,285)"/>
<path d="M0 0 C0.66 0.33 1.32 0.66 2 1 C2 1.66 2 2.32 2 3 C2.66 3 3.32 3 4 3 C3.34 4.32 2.68 5.64 2 7 C1.01 6.34 0.02 5.68 -1 5 C-0.67 3.35 -0.34 1.7 0 0 Z " fill="#C5C6C6" transform="translate(121,324)"/>
<path d="M0 0 C0.99 0.33 1.98 0.66 3 1 C3 1.99 3 2.98 3 4 C4.98 4 6.96 4 9 4 C9 4.33 9 4.66 9 5 C2.25 5.125 2.25 5.125 0 4 C0 2.68 0 1.36 0 0 Z " fill="#6D6E6F" transform="translate(89,387)"/>
<path d="M0 0 C0.66 0 1.32 0 2 0 C2.125 3.375 2.125 3.375 2 7 C1.34 7.66 0.68 8.32 0 9 C-1.125 2.25 -1.125 2.25 0 0 Z " fill="#A3A3A3" transform="translate(98,370)"/>
<path d="M0 0 C0.33 0 0.66 0 1 0 C1 4.29 1 8.58 1 13 C0.67 13 0.34 13 0 13 C0 8.71 0 4.42 0 0 Z " fill="#FFFFFF" transform="translate(339,364)"/>
<path d="M0 0 C0.33 0 0.66 0 1 0 C1 2.31 1 4.62 1 7 C0.34 6.34 -0.32 5.68 -1 5 C-0.625 2.375 -0.625 2.375 0 0 Z " fill="#DFDFDF" transform="translate(89,341)"/>
<path d="M0 0 C0.33 0 0.66 0 1 0 C1 2.64 1 5.28 1 8 C0.67 8 0.34 8 0 8 C0 5.36 0 2.72 0 0 Z " fill="#FFFFFF" transform="translate(339,314)"/>
<path d="M0 0 C0.99 0.99 1.98 1.98 3 3 C2.01 2.67 1.02 2.34 0 2 C0 1.34 0 0.68 0 0 Z " fill="#666666" transform="translate(289,328)"/>
<path d="" fill="#FFFFFF" transform="translate(0,0)"/>
<path d="" fill="#FFFFFF" transform="translate(0,0)"/>
<path d="" fill="#FFFFFF" transform="translate(0,0)"/>
<path d="" fill="#FFFFFF" transform="translate(0,0)"/>
<path d="" fill="#FFFFFF" transform="translate(0,0)"/>
<path d="" fill="#FFFFFF" transform="translate(0,0)"/>
<path d="" fill="#FFFFFF" transform="translate(0,0)"/>
<path d="" fill="#FFFFFF" transform="translate(0,0)"/>
<path d="" fill="#000000" transform="translate(0,0)"/>
</svg>
